<svg width="63" height="63" viewBox="0 0 63 63" fill="#fff" xmlns="http://www.w3.org/2000/svg">
    <path d="M34.125 18.375H28.875V28.875H18.375V34.125H28.875V44.625H34.125V34.125H44.625V28.875H34.125V18.375ZM31.5 5.25C17.01 5.25 5.25 17.01 5.25 31.5C5.25 45.99 17.01 57.75 31.5 57.75C45.99 57.75 57.75 45.99 57.75 31.5C57.75 17.01 45.99 5.25 31.5 5.25ZM31.5 52.5C19.9237 52.5 10.5 43.0762 10.5 31.5C10.5 19.9237 19.9237 10.5 31.5 10.5C43.0762 10.5 52.5 19.9237 52.5 31.5C52.5 43.0762 43.0762 52.5 31.5 52.5Z"/>
</svg>
