<svg viewBox="0 0 58 58" fill="#ffff" xmlns="http://www.w3.org/2000/svg">
    <path d="M53.1667 21.75V16.9167H48.3333V21.75H43.5V26.5833H48.3333V31.4167H53.1667V26.5833H58V21.75H53.1667Z" fill="white"/>
    <path d="M19.3332 29C24.674 29 28.9998 24.6742 28.9998 19.3333C28.9998 13.9925 24.674 9.66667 19.3332 9.66667C13.9923 9.66667 9.6665 13.9925 9.6665 19.3333C9.6665 24.6742 13.9923 29 19.3332 29ZM19.3332 14.5C21.9915 14.5 24.1665 16.675 24.1665 19.3333C24.1665 21.9917 21.9915 24.1667 19.3332 24.1667C16.6748 24.1667 14.4998 21.9917 14.4998 19.3333C14.4998 16.675 16.6748 14.5 19.3332 14.5Z"/>
    <path d="M19.3333 31.4167C12.8808 31.4167 0 34.655 0 41.0833V48.3333H38.6667V41.0833C38.6667 34.655 25.7858 31.4167 19.3333 31.4167ZM33.8333 43.5H4.83333V41.1075C5.31667 39.3675 12.8083 36.25 19.3333 36.25C25.8583 36.25 33.35 39.3675 33.8333 41.0833V43.5Z"/>
    <path d="M30.2324 9.7875C32.4558 12.3492 33.8333 15.6842 33.8333 19.3333C33.8333 22.9825 32.4558 26.3175 30.2324 28.8792C34.9691 28.275 38.6666 24.2633 38.6666 19.3333C38.6666 14.4033 34.9691 10.3917 30.2324 9.7875Z"/>
    <path d="M39.9473 33.4225C42.0981 35.4283 43.4998 37.9417 43.4998 41.0833V48.3333H48.3331V41.0833C48.3331 37.5792 44.4906 35.0175 39.9473 33.4225Z"/>
</svg>
