<svg width="116" height="58" viewBox="0 0 116 58" fill="none" xmlns="http://www.w3.org/2000/svg">
<path d="M19.3333 33.8333C24.65 33.8333 29 29.4833 29 24.1667C29 18.85 24.65 14.5 19.3333 14.5C14.0167 14.5 9.66667 18.85 9.66667 24.1667C9.66667 29.4833 14.0167 33.8333 19.3333 33.8333ZM24.795 39.15C23.0067 38.86 21.2183 38.6667 19.3333 38.6667C14.5483 38.6667 10.005 39.6817 5.89667 41.47C2.32 43.0167 0 46.4967 0 50.4117V58H21.75V50.2183C21.75 46.2067 22.8617 42.4367 24.795 39.15ZM96.6667 33.8333C101.983 33.8333 106.333 29.4833 106.333 24.1667C106.333 18.85 101.983 14.5 96.6667 14.5C91.35 14.5 87 18.85 87 24.1667C87 29.4833 91.35 33.8333 96.6667 33.8333ZM116 50.4117C116 46.4967 113.68 43.0167 110.103 41.47C105.995 39.6817 101.452 38.6667 96.6667 38.6667C94.7817 38.6667 92.9933 38.86 91.205 39.15C93.1383 42.4367 94.25 46.2067 94.25 50.2183V58H116V50.4117ZM78.4933 36.975C72.8383 34.4617 65.8783 32.625 58 32.625C50.1217 32.625 43.1617 34.51 37.5067 36.975C32.2867 39.295 29 44.515 29 50.2183V58H87V50.2183C87 44.515 83.7133 39.295 78.4933 36.975ZM39.005 48.3333C39.44 47.2217 39.6333 46.4483 43.4033 44.9983C48.0917 43.1617 53.0217 42.2917 58 42.2917C62.9783 42.2917 67.9083 43.1617 72.5967 44.9983C76.3183 46.4483 76.5117 47.2217 76.995 48.3333H39.005ZM58 9.66667C60.6583 9.66667 62.8333 11.8417 62.8333 14.5C62.8333 17.1583 60.6583 19.3333 58 19.3333C55.3417 19.3333 53.1667 17.1583 53.1667 14.5C53.1667 11.8417 55.3417 9.66667 58 9.66667ZM58 0C49.9767 0 43.5 6.47667 43.5 14.5C43.5 22.5233 49.9767 29 58 29C66.0233 29 72.5 22.5233 72.5 14.5C72.5 6.47667 66.0233 0 58 0Z" fill="white"/>
</svg>
