<svg width="366" height="325" viewBox="0 0 366 325" fill="none" xmlns="http://www.w3.org/2000/svg">
<g clip-path="url(#clip0_3_106)">
<path d="M284.051 287.286L288.86 269.44C298.216 266.829 308.069 266.54 317.562 268.598C302.141 276.363 299.202 297.278 287.167 309.651C283.383 313.482 278.786 316.413 273.715 318.226C268.644 320.04 263.229 320.69 257.872 320.128L245.465 324.386C245.823 315.705 248.059 307.205 252.021 299.471C255.982 291.737 261.575 284.953 268.412 279.587C272.278 276.614 276.504 274.14 280.988 272.222C282.072 279.695 284.051 287.286 284.051 287.286Z" fill="#E0E0E0"/>
<path d="M59.2177 261.911L51.1007 231.79C35.3099 227.385 18.6815 226.897 2.6593 230.37C28.6868 243.476 33.6457 278.775 53.9592 299.658C60.3447 306.123 68.1044 311.07 76.6631 314.131C85.2218 317.192 94.3601 318.289 103.401 317.341L124.341 324.527C123.738 309.876 119.963 295.529 113.277 282.476C106.591 269.423 97.1527 257.974 85.6119 248.916C79.0871 243.899 71.9561 239.723 64.387 236.487C62.5583 249.099 59.2177 261.911 59.2177 261.911Z" fill="#E0E0E0"/>
<path d="M268.833 77.22V28.3086C268.833 20.8007 265.849 13.6003 260.536 8.29139C255.223 2.98251 248.017 0 240.503 0H136.798C129.285 1.41855e-06 122.079 2.98251 116.766 8.2914C111.453 13.6003 108.468 20.8007 108.468 28.3086V296.641C108.468 304.148 111.453 311.349 116.766 316.658C122.079 321.967 129.285 324.949 136.798 324.949H240.503C248.017 324.949 255.223 321.967 260.536 316.658C265.849 311.349 268.833 304.148 268.833 296.641V112.036C269.068 112.036 269.3 111.99 269.517 111.9C269.734 111.81 269.931 111.679 270.097 111.513C270.263 111.347 270.394 111.15 270.484 110.934C270.574 110.717 270.62 110.485 270.62 110.251V79.0054C270.62 78.5319 270.432 78.0778 270.097 77.743C269.762 77.4082 269.307 77.22 268.833 77.22Z" fill="#3F3D56"/>
<path d="M262.804 28.5029V296.447C262.805 302.013 260.608 307.354 256.69 311.31C252.772 315.266 247.451 317.518 241.881 317.576C241.804 317.584 241.727 317.587 241.65 317.586H137.44C131.83 317.585 126.449 315.358 122.482 311.394C118.515 307.43 116.286 302.053 116.286 296.447V28.5029C116.286 22.8968 118.515 17.5205 122.482 13.5564C126.449 9.59234 131.83 7.36511 137.44 7.36459H150.086C149.465 8.89015 149.228 10.545 149.396 12.1835C149.565 13.8221 150.134 15.3941 151.054 16.7613C151.973 18.1284 153.215 19.2488 154.669 20.0239C156.124 20.799 157.747 21.205 159.395 21.2062H218.807C220.454 21.2016 222.075 20.7933 223.527 20.0171C224.979 19.2409 226.219 18.1204 227.137 16.754C228.055 15.3876 228.623 13.817 228.792 12.18C228.961 10.543 228.726 8.88947 228.106 7.36459H241.65C247.26 7.3651 252.64 9.59233 256.608 13.5564C260.575 17.5205 262.804 22.8968 262.804 28.5029Z" fill="white"/>
<path d="M109.041 104.583C108.402 104.582 107.789 104.328 107.337 103.876C106.885 103.425 106.63 102.812 106.63 102.173V85.7869C106.631 85.1485 106.885 84.5364 107.337 84.0853C107.789 83.6342 108.402 83.3808 109.041 83.3808C109.68 83.3808 110.293 83.6342 110.745 84.0853C111.197 84.5364 111.452 85.1485 111.453 85.7869V102.173C111.452 102.812 111.198 103.425 110.746 103.876C110.293 104.328 109.681 104.582 109.041 104.583Z" fill="#3F3D56"/>
<path d="M108.559 72.7743C107.919 72.7736 107.306 72.5194 106.854 72.0677C106.402 71.6159 106.148 71.0034 106.147 70.3646V53.9783C106.148 53.3398 106.403 52.7278 106.855 52.2767C107.307 51.8255 107.92 51.5721 108.559 51.5721C109.198 51.5721 109.811 51.8255 110.263 52.2767C110.715 52.7278 110.969 53.3398 110.97 53.9783V70.3646C110.97 71.0034 110.715 71.6159 110.263 72.0677C109.811 72.5194 109.198 72.7736 108.559 72.7743Z" fill="#3F3D56"/>
<path d="M172.707 10.1209C172.708 9.48206 172.962 8.86956 173.414 8.41781C173.866 7.96606 174.479 7.71193 175.119 7.71118H191.517C192.156 7.71213 192.769 7.96644 193.22 8.41825C193.672 8.87006 193.925 9.48245 193.925 10.1209C193.925 10.7594 193.672 11.3718 193.22 11.8236C192.769 12.2754 192.156 12.5297 191.517 12.5307H175.119C174.479 12.5299 173.866 12.2758 173.414 11.824C172.962 11.3723 172.708 10.7598 172.707 10.1209Z" fill="white"/>
<path d="M109.041 132.536C108.402 132.535 107.789 132.281 107.337 131.829C106.885 131.378 106.63 130.765 106.63 130.126V113.74C106.631 113.102 106.885 112.49 107.337 112.038C107.789 111.587 108.402 111.334 109.041 111.334C109.68 111.334 110.293 111.587 110.745 112.038C111.197 112.49 111.452 113.102 111.453 113.74V130.126C111.452 130.765 111.198 131.378 110.746 131.829C110.293 132.281 109.681 132.535 109.041 132.536Z" fill="#3F3D56"/>
<path d="M200.682 12.5307C202.013 12.5307 203.093 11.4518 203.093 10.1209C203.093 8.79007 202.013 7.71119 200.682 7.71119C199.35 7.71119 198.27 8.79007 198.27 10.1209C198.27 11.4518 199.35 12.5307 200.682 12.5307Z" fill="white"/>
<path d="M178.222 307.194L184.713 307.193L187.801 282.178H178.221L178.222 307.194Z" fill="#9E616A"/>
<path d="M176.567 305.076L178.394 305.076L185.526 302.178L189.349 305.076H189.35C191.51 305.076 193.582 305.933 195.109 307.46C196.637 308.986 197.495 311.056 197.495 313.215V313.48L176.567 313.48L176.567 305.076Z" fill="#2F2E41"/>
<path d="M208.376 307.194L214.867 307.193L217.955 282.178H208.375L208.376 307.194Z" fill="#9E616A"/>
<path d="M206.721 305.076L208.548 305.076L215.68 302.178L219.503 305.076H219.504C221.664 305.076 223.736 305.933 225.263 307.46C226.791 308.986 227.649 311.056 227.649 313.215V313.48L206.721 313.48L206.721 305.076Z" fill="#2F2E41"/>
<path d="M213.565 170.294L162.569 171.623L163.456 196.437C163.456 196.437 162.569 203.084 164.343 204.856C166.116 206.628 167.003 206.628 166.116 209.73C165.229 212.832 169.915 217.898 169.346 218.467C168.777 219.035 167.447 222.137 167.447 222.137L171.881 247.394C171.881 247.394 174.985 291.261 175.872 292.147C176.759 293.033 177.646 292.147 176.759 294.363C175.872 296.578 174.985 295.692 175.872 296.578C176.658 297.425 177.398 298.312 178.089 299.237H188.81C188.81 299.237 189.619 294.806 189.619 294.363C189.619 293.92 190.506 291.261 190.506 290.818C190.506 290.375 189.722 289.592 189.722 289.592C189.451 288.691 189.268 287.766 189.175 286.83C189.175 285.944 186.515 251.825 186.515 251.825L191.836 207.515L204.696 250.939C204.696 250.939 204.696 289.045 205.583 289.932C206.47 290.818 206.47 290.375 206.026 292.147C205.583 293.92 203.809 293.476 205.139 294.806C206.47 296.135 206.913 293.92 206.47 296.135L206.026 298.351L219.329 298.541C219.329 298.541 221.103 294.806 220.216 293.477C219.329 292.147 219.383 292.51 220.465 290.335C221.547 288.159 221.99 287.716 221.547 287.273C221.103 286.83 221.103 284.473 221.103 284.473L218.886 242.077C218.886 242.077 218.442 197.323 218.442 195.994C218.409 195.31 218.535 194.628 218.811 194.001V192.196L217.112 185.803L213.565 170.294Z" fill="#2F2E41"/>
<path d="M173.668 81.3001C181.26 81.3001 187.414 75.1502 187.414 67.5639C187.414 59.9777 181.26 53.8278 173.668 53.8278C166.076 53.8278 159.921 59.9777 159.921 67.5639C159.921 75.1502 166.076 81.3001 173.668 81.3001Z" fill="#9E616A"/>
<path d="M167.422 76.9075L166.866 76.462C166.855 76.4536 165.799 75.6164 164.791 75.7629C164.561 75.8011 164.342 75.8875 164.148 76.0166C163.954 76.1457 163.79 76.3144 163.666 76.5116C163.595 76.6201 163.494 76.7052 163.375 76.7559C163.255 76.8066 163.124 76.8208 162.996 76.7966C161.688 76.5908 159.327 72.7237 158.137 68.8394C157.403 66.444 156.538 62.1034 158.921 59.7903C159.106 58.7431 161.006 49.3033 169.36 49.0411C177.956 48.7679 183.678 50.5023 185.059 53.7901C185.294 54.3495 185.531 55.0079 185.763 55.747C185.882 56.1075 185.896 56.4942 185.804 56.8623C185.712 57.2305 185.517 57.5651 185.243 57.8274C184.994 58.0694 184.688 58.246 184.354 58.3412C184.02 58.4364 183.668 58.4473 183.328 58.373C183.286 58.795 183.176 59.2073 183 59.5936C182.249 61.2202 180.359 62.2815 178.185 62.298C176.897 62.2791 175.622 62.0334 174.419 61.572L177.897 64.2455L169.586 63.2123L172.309 64.6668L171.763 64.9256C170.071 65.6752 168.674 66.964 167.792 68.5907C166.911 70.2174 166.593 72.0903 166.89 73.9164L167.422 76.9075Z" fill="#2F2E41"/>
<path d="M211.06 163.728C212.994 160.391 211.152 155.568 211.152 155.568C211.152 155.568 216.156 148.175 214.928 145.022L209.036 99.3946C209.036 99.3946 207.194 94.4865 202.896 92.0325C201.717 91.3592 195.528 91.6238 194.17 91.6352L189.761 89.7517C189.505 90.6862 184.697 80.9459 184.671 81.9145C181.602 81.9145 179.625 82.3378 174.848 83.1415C166.554 84.5381 170.733 92.0259 171.258 92.9099C171.047 92.9236 170.837 92.9528 170.63 92.9971C169.549 93.1996 165.865 96.3837 165.865 96.3837L159.277 102.23C149.35 110.016 151.572 122.163 151.572 122.163L166.05 136.722L159.707 165.931C159.707 165.931 162.403 170.268 161.009 172.213C159.615 174.158 173.288 173.599 173.288 173.599C182.725 177.802 215.972 174.25 215.972 174.25C215.511 173.047 211.06 163.728 211.06 163.728Z" fill="#6D6D6D"/>
<path d="M239.861 311.045C239.861 313.821 239.773 316.573 239.598 319.303C239.522 319.312 239.445 319.316 239.368 319.314H135.161C130.446 319.313 125.867 317.74 122.149 314.843C118.431 311.945 115.788 307.89 114.639 303.321C114.438 302.524 114.286 301.715 114.184 300.898C114.065 299.996 114.006 299.086 114.007 298.176V178.768C122.026 179.164 129.991 180.288 137.806 182.126C138.571 182.303 139.331 182.49 140.086 182.683C140.134 182.693 140.182 182.709 140.23 182.72C140.996 182.913 141.756 183.116 142.511 183.325C158.62 187.746 173.742 195.186 187.072 205.249C187.838 205.821 188.598 206.409 189.352 207.003L189.497 207.115C190.76 208.11 192.004 209.13 193.228 210.175C193.501 210.405 193.774 210.64 194.041 210.881C194.7 211.448 195.358 212.025 196 212.608C210.215 225.393 221.499 241.094 229.08 258.639C229.332 259.211 229.573 259.789 229.814 260.366C229.91 260.602 230.006 260.837 230.103 261.072C230.194 261.286 230.279 261.5 230.365 261.714C236.658 277.4 239.881 294.146 239.861 311.045Z" fill="#3F3D56"/>
<path opacity="0.2" d="M191.777 299.171C191.776 294.167 192.762 289.213 194.678 284.59C196.594 279.968 199.402 275.768 202.943 272.23C206.484 268.692 210.687 265.885 215.313 263.971C219.939 262.057 224.897 261.072 229.905 261.072H230.103C230.006 260.837 229.91 260.602 229.814 260.366C229.573 259.789 229.332 259.211 229.08 258.639H191.777V210.881H194.041C193.774 210.64 193.501 210.405 193.228 210.175C192.002 209.132 190.758 208.112 189.497 207.115L189.352 207.003V208.447H142.511V183.325C141.756 183.116 140.996 182.913 140.23 182.72C140.182 182.709 140.134 182.693 140.086 182.683V208.447H116.288V210.881H140.086V258.639H116.288V261.072H140.086V299.171H116.464C116.566 299.987 116.718 300.796 116.919 301.594H140.086V317.586H142.511V301.594H189.352V317.586H191.777V301.594H232.645V299.171H191.777ZM189.352 299.171H142.511V261.072H189.352V299.171ZM189.352 258.639H142.511V257.687C142.511 245.273 147.446 233.368 156.23 224.59C165.015 215.812 176.929 210.881 189.352 210.881V258.639Z" fill="black"/>
<path d="M163.625 196.231C163.143 195.69 162.786 195.051 162.579 194.358C162.371 193.665 162.318 192.935 162.424 192.22C162.529 191.504 162.79 190.82 163.189 190.216C163.587 189.612 164.113 189.103 164.73 188.724L158.484 164.191L167.023 167.461L171.769 190.627C172.337 191.705 172.49 192.953 172.198 194.136C171.907 195.318 171.191 196.353 170.187 197.044C169.184 197.734 167.961 198.033 166.752 197.883C165.542 197.733 164.429 197.145 163.625 196.231Z" fill="#9E616A"/>
<path d="M152.131 117.498L151.359 127.294C151.359 127.294 150.401 138.057 150.652 140.048C150.903 142.038 151.37 154.192 151.37 154.192L159.498 170.259L168.708 167.805L168.157 160.268L168.708 167.192L169.936 161.057L166.866 150.627L168.708 146.946L167.779 134.589L152.131 117.498Z" fill="#E6E6E6"/>
<path d="M363.91 183.6C362.826 182.315 361.287 181.497 359.615 181.315C359.377 181.289 359.138 181.276 358.899 181.276L235.461 181.161C234.568 181.158 233.683 181.338 232.862 181.69C232.041 182.042 231.301 182.559 230.687 183.208C229.505 184.491 228.86 186.178 228.883 187.922L228.864 207.958C228.854 211.589 229.641 215.177 231.17 218.47C230.317 221.702 228.891 224.755 226.961 227.484C226.36 228.348 226.016 229.365 225.967 230.416C225.919 231.468 226.168 232.511 226.687 233.428C227.205 234.344 227.972 235.095 228.899 235.595C229.826 236.095 230.875 236.324 231.926 236.255C233.227 236.175 234.523 236.028 235.809 235.814C239.551 235.228 243.122 233.838 246.275 231.74C248.701 232.503 251.228 232.892 253.771 232.893L340.568 232.974C343.841 232.986 347.085 232.347 350.109 231.096C353.133 229.844 355.878 228.003 358.184 225.682C362.883 220.889 365.494 214.434 365.446 207.725L365.465 188.058C365.492 186.435 364.941 184.855 363.91 183.6Z" fill="#42C452"/>
<path d="M331.658 199.343L262.668 199.279C262.471 199.278 262.275 199.239 262.093 199.164C261.911 199.088 261.746 198.978 261.607 198.838C261.467 198.699 261.357 198.533 261.282 198.351C261.206 198.169 261.168 197.974 261.168 197.777C261.168 197.58 261.207 197.385 261.283 197.203C261.358 197.021 261.469 196.856 261.609 196.717C261.748 196.578 261.914 196.467 262.096 196.392C262.278 196.317 262.473 196.278 262.67 196.279L331.661 196.343C332.059 196.343 332.441 196.502 332.722 196.783C333.003 197.065 333.161 197.447 333.161 197.844C333.161 198.242 333.002 198.624 332.72 198.905C332.438 199.186 332.057 199.343 331.658 199.343Z" fill="white"/>
<path d="M331.65 208.55L262.659 208.485C262.462 208.485 262.267 208.446 262.085 208.371C261.903 208.295 261.737 208.184 261.598 208.045C261.459 207.906 261.348 207.74 261.273 207.558C261.198 207.376 261.159 207.181 261.159 206.984C261.159 206.787 261.198 206.592 261.274 206.41C261.35 206.228 261.46 206.063 261.6 205.924C261.739 205.785 261.905 205.674 262.087 205.599C262.269 205.524 262.465 205.485 262.662 205.485L331.653 205.55C332.051 205.55 332.432 205.709 332.714 205.99C332.995 206.272 333.153 206.653 333.152 207.051C333.152 207.449 332.993 207.83 332.712 208.111C332.43 208.392 332.048 208.55 331.65 208.55H331.65Z" fill="white"/>
<path d="M270.69 217.699L262.65 217.692C262.453 217.692 262.258 217.653 262.076 217.577C261.894 217.502 261.729 217.391 261.589 217.252C261.45 217.112 261.34 216.947 261.264 216.765C261.189 216.583 261.151 216.388 261.151 216.191C261.151 215.994 261.19 215.799 261.266 215.617C261.341 215.435 261.452 215.27 261.591 215.13C261.731 214.991 261.897 214.881 262.079 214.806C262.261 214.731 262.456 214.692 262.653 214.692L270.693 214.7C271.091 214.701 271.472 214.859 271.753 215.141C272.033 215.422 272.191 215.804 272.19 216.201C272.19 216.598 272.032 216.979 271.751 217.26C271.469 217.541 271.088 217.699 270.69 217.699Z" fill="white"/>
<path d="M1.7133 106.045C2.79785 104.76 4.33615 103.941 6.00878 103.76C6.2466 103.734 6.48563 103.721 6.72485 103.721L130.162 103.606C131.056 103.602 131.941 103.782 132.762 104.135C133.583 104.487 134.323 105.003 134.936 105.653C136.118 106.936 136.764 108.623 136.741 110.367L136.76 130.403C136.769 134.033 135.982 137.622 134.453 140.915C135.307 144.147 136.732 147.199 138.663 149.928C139.264 150.793 139.608 151.809 139.657 152.861C139.705 153.912 139.456 154.956 138.937 155.872C138.418 156.788 137.652 157.54 136.725 158.04C135.798 158.54 134.749 158.769 133.698 158.7C132.397 158.62 131.1 158.472 129.815 158.259C126.072 157.673 122.501 156.283 119.348 154.185C116.923 154.948 114.395 155.336 111.853 155.338L25.0557 155.419C21.7821 155.431 18.5389 154.792 15.5146 153.54C12.4904 152.288 9.74537 150.448 7.43933 148.126C2.74068 143.334 0.130055 136.879 0.177278 130.17L0.158869 110.502C0.131531 108.879 0.68248 107.3 1.7133 106.045Z" fill="#42C452"/>
<path d="M32.4627 120.289C32.4628 119.891 32.6208 119.51 32.9019 119.229C33.183 118.947 33.5644 118.789 33.9624 118.788L102.953 118.723C103.351 118.723 103.733 118.881 104.015 119.162C104.297 119.443 104.455 119.824 104.456 120.222C104.456 120.62 104.298 121.001 104.017 121.283C103.736 121.564 103.354 121.723 102.956 121.723L33.9652 121.788C33.5672 121.788 33.1856 121.63 32.9039 121.349C32.6222 121.068 32.4636 120.687 32.4627 120.289Z" fill="white"/>
<path d="M32.4713 129.496C32.4714 129.098 32.6294 128.717 32.9105 128.435C33.1916 128.154 33.573 127.995 33.971 127.995L102.962 127.93C103.36 127.93 103.742 128.087 104.024 128.369C104.305 128.65 104.464 129.031 104.464 129.429C104.465 129.827 104.307 130.208 104.026 130.49C103.744 130.771 103.363 130.93 102.965 130.93L33.9738 130.994C33.5758 130.994 33.1942 130.836 32.9125 130.556C32.6308 130.275 32.4722 129.894 32.4713 129.496Z" fill="white"/>
<path d="M93.4308 138.646C93.431 138.248 93.5889 137.867 93.87 137.585C94.1512 137.304 94.5326 137.145 94.9305 137.144L102.97 137.137C103.368 137.136 103.75 137.294 104.032 137.575C104.314 137.856 104.473 138.237 104.473 138.635C104.473 139.033 104.315 139.415 104.034 139.696C103.753 139.978 103.371 140.136 102.973 140.137L94.9333 140.144C94.5354 140.144 94.1537 139.986 93.872 139.705C93.5904 139.424 93.4317 139.043 93.4308 138.646Z" fill="white"/>
<path d="M250.333 59.6689C249.645 60.0132 249.041 60.5039 248.563 61.1066C248.086 61.7092 247.746 62.4092 247.569 63.1571C247.391 63.905 247.38 64.6828 247.536 65.4355C247.692 66.1882 248.011 66.8976 248.471 67.5138L237.976 82.9778L247.692 83.1035L256.169 68.3994C257.154 67.5587 257.795 66.3863 257.973 65.1043C258.15 63.8224 257.851 62.5199 257.131 61.4438C256.412 60.3676 255.323 59.5926 254.069 59.2655C252.816 58.9384 251.487 59.0819 250.333 59.669V59.6689Z" fill="#9E616A"/>
<path d="M253.665 74.2518L237.497 103.96L237.353 103.97C237.234 103.977 232.09 104.318 225.807 104.658C224.747 104.716 224.123 106.594 223.017 106.65C222.255 106.689 219.444 110.219 218.675 110.256C211.827 110.581 207.899 113.708 205.293 113.465C201.761 113.171 197.056 103.463 194.49 101.02L194.43 100.956L194.421 100.869C194.242 99.087 194.675 97.2974 195.65 95.7949C196.625 94.2925 198.083 93.1668 199.784 92.6035C208.011 89.9277 216.747 89.1991 225.304 90.4753L230.171 91.2069L244.944 71.3807L253.665 74.2518Z" fill="#E6E6E6"/>
<path d="M340.894 16.7229C339.809 15.4377 338.271 14.6192 336.598 14.4374C336.36 14.4117 336.121 14.3987 335.882 14.3985L212.445 14.2834C211.551 14.2802 210.666 14.4602 209.845 14.8123C209.024 15.1644 208.284 15.6811 207.671 16.3303C206.489 17.6139 205.843 19.3005 205.866 21.0444L205.847 41.0808C205.837 44.7111 206.625 48.2994 208.153 51.5927C207.3 54.8243 205.875 57.877 203.944 60.606C203.343 61.4707 202.999 62.4871 202.95 63.5386C202.902 64.59 203.151 65.6338 203.67 66.55C204.188 67.4661 204.955 68.2175 205.882 68.7177C206.809 69.2179 207.858 69.4467 208.909 69.3777C210.21 69.2974 211.506 69.1501 212.792 68.9363C216.535 68.3507 220.106 66.9609 223.258 64.8628C225.684 65.6255 228.211 66.0143 230.754 66.0156L317.551 66.0965C320.825 66.1085 324.068 65.47 327.092 64.2181C330.117 62.9662 332.861 61.1259 335.168 58.8042C339.866 54.0117 342.477 47.5564 342.43 40.8475L342.448 21.1802C342.475 19.5572 341.924 17.9774 340.894 16.7229Z" fill="#42C452"/>
<path d="M308.642 32.4653L239.651 32.401C239.454 32.4008 239.259 32.3618 239.077 32.2863C238.894 32.2107 238.729 32.1001 238.59 31.9607C238.451 31.8213 238.34 31.6558 238.265 31.4738C238.19 31.2917 238.151 31.0966 238.151 30.8997C238.151 30.7027 238.19 30.5077 238.266 30.3258C238.342 30.1438 238.452 29.9786 238.592 29.8394C238.731 29.7003 238.897 29.59 239.079 29.5147C239.261 29.4395 239.457 29.4009 239.654 29.4011L308.644 29.4655C309.043 29.4658 309.424 29.6242 309.705 29.9058C309.987 30.1873 310.145 30.569 310.144 30.9668C310.144 31.3646 309.985 31.746 309.703 32.027C309.422 32.308 309.04 32.4657 308.642 32.4653Z" fill="white"/>
<path d="M308.633 41.6722L239.642 41.6078C239.244 41.6074 238.863 41.449 238.581 41.1675C238.3 40.8859 238.142 40.5043 238.143 40.1065C238.143 39.7087 238.301 39.3273 238.583 39.0463C238.865 38.7652 239.247 38.6076 239.645 38.6079L308.636 38.6723C309.034 38.6727 309.416 38.831 309.697 39.1126C309.978 39.3942 310.136 39.7758 310.136 40.1736C310.135 40.5714 309.977 40.9528 309.695 41.2338C309.413 41.5149 309.031 41.6725 308.633 41.6722H308.633Z" fill="white"/>
<path d="M247.674 50.8219L239.634 50.8144C239.437 50.8142 239.241 50.7753 239.059 50.6997C238.877 50.6242 238.712 50.5135 238.573 50.3741C238.433 50.2347 238.323 50.0692 238.248 49.8872C238.172 49.7051 238.134 49.51 238.134 49.3131C238.134 49.1161 238.173 48.9211 238.249 48.7392C238.324 48.5573 238.435 48.392 238.575 48.2529C238.714 48.1137 238.88 48.0034 239.062 47.9282C239.244 47.853 239.439 47.8143 239.636 47.8145L247.676 47.822C248.074 47.823 248.455 47.9817 248.736 48.2632C249.016 48.5447 249.174 48.926 249.174 49.3234C249.173 49.7207 249.015 50.1017 248.734 50.3827C248.453 50.6637 248.071 50.8216 247.674 50.8219V50.8219Z" fill="white"/>
</g>
<defs>
<clipPath id="clip0_3_106">
<rect width="366" height="325" fill="white"/>
</clipPath>
</defs>
</svg>
