<svg width="525" height="354" viewBox="0 0 525 354" fill="none" xmlns="http://www.w3.org/2000/svg">
<g clip-path="url(#clip0_17_323)">
<path d="M471.774 178.762L467.357 183.125L473.225 198.447L481.412 181.461L494.822 104.343L474.198 103.768L471.774 178.762Z" fill="#9F616A"/>
<path d="M438.166 340.166H426.994L418.305 241.416H440.028L438.166 340.166Z" fill="#9F616A"/>
<path d="M480.371 340.166H469.2L460.51 241.416H482.233L480.371 340.166Z" fill="#9F616A"/>
<path d="M471.719 353.048L455.408 352.961C453.954 352.233 452.82 350.992 452.226 349.478C451.632 347.963 451.619 346.282 452.19 344.759C452.595 343.677 453.278 342.721 454.17 341.987C455.061 341.252 456.13 340.766 457.269 340.576L460.351 340.062L463.035 336.643C463.799 335.648 464.904 334.972 466.136 334.742C467.369 334.513 468.642 334.747 469.712 335.401C472.288 337.036 475.86 337.581 480.264 337.215L483.691 345.591C484.371 350.122 481.27 353.112 476.748 353.826C475.031 354.097 473.273 353.825 471.719 353.048Z" fill="#2F2E41"/>
<path d="M429.514 353.048L413.203 352.961C411.749 352.233 410.615 350.992 410.021 349.478C409.427 347.964 409.414 346.282 409.985 344.759C410.39 343.677 411.073 342.721 411.965 341.987C412.856 341.252 413.925 340.766 415.064 340.576L418.146 340.062L421.131 336.26C421.855 335.346 422.898 334.738 424.05 334.56C425.203 334.381 426.381 334.644 427.348 335.297C429.934 337.013 433.563 337.589 438.059 337.216L441.486 345.591C442.166 350.122 439.065 353.112 434.542 353.826C432.826 354.097 431.068 353.825 429.514 353.048Z" fill="#2F2E41"/>
<path d="M441.27 51.3705C450.525 51.3705 458.027 43.8629 458.027 34.6017C458.027 25.3406 450.525 17.833 441.27 17.833C432.014 17.833 424.512 25.3406 424.512 34.6017C424.512 43.8629 432.014 51.3705 441.27 51.3705Z" fill="#9F616A"/>
<path d="M465.475 66.8971L438.166 68.7603C438.263 59.9169 437.877 51.9072 435.684 47.023L454.924 40.8124C455.109 48.5991 459.191 57.448 465.475 66.8971Z" fill="#9F616A"/>
<path d="M482.233 188.005L412.098 182.415C421.456 151.2 418.528 110.326 408.995 79.6812C408.995 76.1027 410.08 72.6084 412.107 69.66C414.134 66.7116 417.007 64.4479 420.346 63.1681L438.166 56.339L460.51 58.8232L479.351 68.2498C482.257 69.7039 484.693 71.952 486.375 74.7339C488.057 77.5157 488.918 80.7175 488.857 83.9685C481.775 112.309 480.922 148.75 482.233 188.005Z" fill="#42C452"/>
<path d="M429.477 111.614L397.823 106.024L400.548 84.8952C401.211 79.752 403.384 74.9213 406.792 71.0144C410.2 67.1074 414.689 64.2997 419.692 62.9467L425.753 61.3075L429.477 111.614Z" fill="#42C452"/>
<path d="M410.857 181.794L414.581 186.763L408.995 202.289L400.927 183.036L399.065 104.782L419.547 107.266L410.857 181.794Z" fill="#9F616A"/>
<path d="M464.234 112.856L495.888 107.266L493.163 86.1373C492.5 80.9942 490.327 76.1635 486.919 72.2565C483.511 68.3495 479.022 65.5419 474.019 64.1888L467.958 62.5496L464.234 112.856Z" fill="#42C452"/>
<path d="M484.095 244.521L458.128 245.764L450.579 209.121L441.414 243.279L413.96 243.9L408.473 199.764C408.049 196.357 408.317 192.899 409.26 189.598C410.203 186.297 411.801 183.22 413.96 180.552L482.233 183.657L484.095 244.521Z" fill="#2F2E41"/>
<path d="M442.821 52.9231L455.352 50.5485L462.807 37.8046C464.616 34.7123 465.399 31.1256 465.043 27.5602C464.687 23.9948 463.21 20.6342 460.825 17.9614C458.967 15.8785 456.622 14.2876 454.001 13.3301C451.38 12.3725 448.563 12.0781 445.801 12.473L429.56 14.7946C428.159 14.9948 426.812 15.4703 425.596 16.1936C424.38 16.917 423.319 17.8739 422.474 19.0093C421.63 20.1448 421.018 21.4362 420.674 22.8093C420.33 24.1824 420.261 25.61 420.471 27.0099L431.41 28.8723L442.821 52.9231Z" fill="#2F2E41"/>
<path d="M435.373 42.9861C437.087 42.9861 438.476 41.3177 438.476 39.2597C438.476 37.2017 437.087 35.5333 435.373 35.5333C433.659 35.5333 432.27 37.2017 432.27 39.2597C432.27 41.3177 433.659 42.9861 435.373 42.9861Z" fill="#9F616A"/>
<path d="M78.4923 7.58545C76.6822 7.5875 74.9469 8.30792 73.667 9.58867C72.387 10.8694 71.6671 12.6059 71.665 14.4172V139.251C71.6671 141.062 72.387 142.799 73.667 144.08C74.9469 145.36 76.6822 146.081 78.4923 146.083H81.5956C83.4057 146.081 85.1411 145.36 86.421 144.08C87.7009 142.799 88.4209 141.062 88.4229 139.251V14.4172C88.4209 12.6059 87.7009 10.8694 86.421 9.58867C85.1411 8.30792 83.4057 7.5875 81.5956 7.58545H78.4923Z" fill="#E6E6E6"/>
<path d="M78.4923 10.3802C77.4227 10.3815 76.3973 10.8072 75.641 11.564C74.8847 12.3208 74.4592 13.3469 74.458 14.4172V139.251C74.4592 140.321 74.8847 141.347 75.641 142.104C76.3973 142.861 77.4227 143.287 78.4923 143.288H81.5956C82.6652 143.287 83.6906 142.861 84.4469 142.104C85.2032 141.347 85.6287 140.321 85.6299 139.251V14.4172C85.6287 13.3469 85.2032 12.3208 84.4469 11.564C83.6906 10.8072 82.6652 10.3815 81.5956 10.3802H78.4923Z" fill="white"/>
<path d="M129.387 7.58545C127.577 7.5875 125.841 8.30792 124.561 9.58867C123.281 10.8694 122.561 12.6059 122.559 14.4172V139.251C122.561 141.062 123.281 142.799 124.561 144.08C125.841 145.36 127.577 146.081 129.387 146.083H132.49C134.3 146.081 136.035 145.36 137.315 144.08C138.595 142.799 139.315 141.062 139.317 139.251V14.4172C139.315 12.6059 138.595 10.8694 137.315 9.58867C136.035 8.30792 134.3 7.5875 132.49 7.58545H129.387Z" fill="#E6E6E6"/>
<path d="M129.387 10.3802C128.317 10.3815 127.292 10.8072 126.536 11.564C125.779 12.3208 125.354 13.3469 125.353 14.4172V139.251C125.354 140.321 125.779 141.347 126.536 142.104C127.292 142.861 128.317 143.287 129.387 143.288H132.49C133.56 143.287 134.585 142.861 135.341 142.104C136.098 141.347 136.523 140.321 136.524 139.251V14.4172C136.523 13.3469 136.098 12.3208 135.341 11.564C134.585 10.8072 133.56 10.3815 132.49 10.3802H129.387Z" fill="white"/>
<path d="M180.281 7.58545C178.471 7.5875 176.735 8.30792 175.456 9.58867C174.176 10.8694 173.456 12.6059 173.454 14.4172V139.251C173.456 141.062 174.176 142.799 175.456 144.08C176.735 145.36 178.471 146.081 180.281 146.083H183.384C185.194 146.081 186.93 145.36 188.21 144.08C189.49 142.799 190.209 141.062 190.212 139.251V14.4172C190.209 12.6059 189.49 10.8694 188.21 9.58867C186.93 8.30792 185.194 7.5875 183.384 7.58545H180.281Z" fill="#E6E6E6"/>
<path d="M180.281 10.3802C179.212 10.3815 178.186 10.8072 177.43 11.564C176.674 12.3208 176.248 13.3469 176.247 14.4172V139.251C176.248 140.321 176.674 141.347 177.43 142.104C178.186 142.861 179.212 143.287 180.281 143.288H183.384C184.454 143.287 185.479 142.861 186.236 142.104C186.992 141.347 187.417 140.321 187.419 139.251V14.4172C187.417 13.3469 186.992 12.3208 186.236 11.564C185.479 10.8072 184.454 10.3815 183.384 10.3802H180.281Z" fill="white"/>
<path d="M231.175 7.58545C229.365 7.5875 227.63 8.30792 226.35 9.58867C225.07 10.8694 224.35 12.6059 224.348 14.4172V139.251C224.35 141.062 225.07 142.799 226.35 144.08C227.63 145.36 229.365 146.081 231.175 146.083H234.279C236.089 146.081 237.824 145.36 239.104 144.08C240.384 142.799 241.104 141.062 241.106 139.251V14.4172C241.104 12.6059 240.384 10.8694 239.104 9.58867C237.824 8.30792 236.089 7.5875 234.279 7.58545H231.175Z" fill="#E6E6E6"/>
<path d="M231.175 10.3802C230.106 10.3815 229.08 10.8072 228.324 11.564C227.568 12.3208 227.142 13.3469 227.141 14.4172V139.251C227.142 140.321 227.568 141.347 228.324 142.104C229.08 142.861 230.106 143.287 231.175 143.288H234.279C235.348 143.287 236.374 142.861 237.13 142.104C237.886 141.347 238.312 140.321 238.313 139.251V14.4172C238.312 13.3469 237.886 12.3208 237.13 11.564C236.374 10.8072 235.348 10.3815 234.279 10.3802H231.175Z" fill="white"/>
<path d="M282.07 7.58545C280.26 7.5875 278.524 8.30792 277.244 9.58867C275.964 10.8694 275.244 12.6059 275.242 14.4172V139.251C275.244 141.062 275.964 142.799 277.244 144.08C278.524 145.36 280.26 146.081 282.07 146.083H285.173C286.983 146.081 288.718 145.36 289.998 144.08C291.278 142.799 291.998 141.062 292 139.251V14.4172C291.998 12.6059 291.278 10.8694 289.998 9.58867C288.718 8.30792 286.983 7.5875 285.173 7.58545H282.07Z" fill="#E6E6E6"/>
<path d="M282.069 10.3802C281 10.3815 279.974 10.8072 279.218 11.564C278.462 12.3208 278.036 13.3469 278.035 14.4172V139.251C278.036 140.321 278.462 141.347 279.218 142.104C279.974 142.861 281 143.287 282.069 143.288H285.173C286.242 143.287 287.268 142.861 288.024 142.104C288.78 141.347 289.206 140.321 289.207 139.251V14.4172C289.206 13.3469 288.78 12.3208 288.024 11.564C287.268 10.8072 286.242 10.3815 285.173 10.3802H282.069Z" fill="white"/>
<path d="M90.1346 47.9735H70.5744C68.8889 47.9716 67.2731 47.3008 66.0813 46.1082C64.8895 44.9157 64.2192 43.2988 64.2173 41.6122V40.6336C64.2192 38.9471 64.8895 37.3302 66.0813 36.1376C67.2731 34.9451 68.8889 34.2743 70.5744 34.2724H90.1346C91.8201 34.2743 93.4359 34.9451 94.6277 36.1376C95.8195 37.3302 96.4899 38.9471 96.4917 40.6336V41.6122C96.4899 43.2988 95.8195 44.9157 94.6277 46.1082C93.4359 47.3008 91.8201 47.9716 90.1346 47.9735Z" fill="#42C452"/>
<path d="M142.27 68.4686H122.71C121.024 68.4667 119.409 67.7959 118.217 66.6034C117.025 65.4108 116.355 63.7939 116.353 62.1074V61.1287C116.355 59.4422 117.025 57.8253 118.217 56.6327C119.409 55.4402 121.024 54.7694 122.71 54.7675H142.27C143.956 54.7694 145.571 55.4402 146.763 56.6327C147.955 57.8253 148.625 59.4422 148.627 61.1287V62.1074C148.625 63.7939 147.955 65.4108 146.763 66.6034C145.571 67.7959 143.956 68.4667 142.27 68.4686Z" fill="#42C452"/>
<path d="M191.923 108.838H172.363C170.677 108.836 169.062 108.165 167.87 106.973C166.678 105.78 166.008 104.163 166.006 102.477V101.498C166.008 99.8114 166.678 98.1945 167.87 97.0019C169.062 95.8094 170.677 95.1386 172.363 95.1367H191.923C193.609 95.1386 195.224 95.8094 196.416 97.0019C197.608 98.1945 198.278 99.8114 198.28 101.498V102.477C198.278 104.163 197.608 105.78 196.416 106.973C195.224 108.165 193.609 108.836 191.923 108.838Z" fill="#42C452"/>
<path d="M242.817 35.5522H223.257C221.572 35.5503 219.956 34.8795 218.764 33.687C217.572 32.4944 216.902 30.8775 216.9 29.191V28.2123C216.902 26.5258 217.572 24.9089 218.764 23.7164C219.956 22.5238 221.572 21.853 223.257 21.8511H242.817C244.503 21.853 246.119 22.5238 247.311 23.7163C248.502 24.9089 249.173 26.5258 249.175 28.2123V29.191C249.173 30.8775 248.502 32.4944 247.311 33.687C246.119 34.8795 244.503 35.5503 242.817 35.5522Z" fill="#42C452"/>
<path d="M293.712 83.9952H274.152C272.466 83.9933 270.85 83.3225 269.658 82.13C268.467 80.9374 267.796 79.3205 267.794 77.634V76.6553C267.796 74.9688 268.467 73.3519 269.658 72.1594C270.85 70.9668 272.466 70.296 274.152 70.2941H293.712C295.397 70.296 297.013 70.9668 298.205 72.1594C299.397 73.3519 300.067 74.9688 300.069 76.6553V77.634C300.067 79.3205 299.397 80.9374 298.205 82.13C297.013 83.3225 295.397 83.9933 293.712 83.9952Z" fill="#42C452"/>
<path d="M524.754 354H358.789V352.643H525L524.754 354Z" fill="#3F3D56"/>
<path d="M80.3545 178.999C84.8107 178.999 88.4231 175.384 88.4231 170.925C88.4231 166.466 84.8107 162.852 80.3545 162.852C75.8983 162.852 72.2859 166.466 72.2859 170.925C72.2859 175.384 75.8983 178.999 80.3545 178.999Z" fill="#E6E6E6"/>
<path d="M131.249 178.999C135.705 178.999 139.317 175.384 139.317 170.925C139.317 166.466 135.705 162.852 131.249 162.852C126.793 162.852 123.18 166.466 123.18 170.925C123.18 175.384 126.793 178.999 131.249 178.999Z" fill="#E6E6E6"/>
<path d="M182.143 178.999C186.599 178.999 190.212 175.384 190.212 170.925C190.212 166.466 186.599 162.852 182.143 162.852C177.687 162.852 174.074 166.466 174.074 170.925C174.074 175.384 177.687 178.999 182.143 178.999Z" fill="#E6E6E6"/>
<path d="M233.037 178.999C237.494 178.999 241.106 175.384 241.106 170.925C241.106 166.466 237.494 162.852 233.037 162.852C228.581 162.852 224.969 166.466 224.969 170.925C224.969 175.384 228.581 178.999 233.037 178.999Z" fill="#E6E6E6"/>
<path d="M283.932 178.999C288.388 178.999 292 175.384 292 170.925C292 166.466 288.388 162.852 283.932 162.852C279.475 162.852 275.863 166.466 275.863 170.925C275.863 175.384 279.475 178.999 283.932 178.999Z" fill="#E6E6E6"/>
<path d="M17.8728 0C14.3379 1.22836e-06 10.8824 1.0489 7.9432 3.01406C5.00404 4.97922 2.71324 7.77238 1.36049 11.0403C0.0077441 14.3083 -0.346197 17.9042 0.34343 21.3734C1.03306 24.8427 2.73527 28.0294 5.23483 30.5305C7.73438 33.0317 10.919 34.735 14.386 35.4251C17.853 36.1152 21.4466 35.761 24.7124 34.4074C27.9782 33.0537 30.7696 30.7614 32.7335 27.8204C34.6974 24.8793 35.7456 21.4215 35.7456 17.8844C35.7456 15.5357 35.2833 13.2101 34.3851 11.0403C33.4869 8.87048 32.1704 6.89892 30.5108 5.2382C28.8511 3.57749 26.8808 2.26014 24.7124 1.36136C22.544 0.462593 20.2199 -2.44677e-06 17.8728 0ZM17.8728 33.1266C14.8601 33.1266 11.9151 32.2326 9.41015 30.5578C6.90521 28.883 4.95284 26.5025 3.79995 23.7173C2.64705 20.9322 2.3454 17.8675 2.93314 14.9108C3.52089 11.9541 4.97162 9.23816 7.1019 7.10649C9.23218 4.97483 11.9463 3.52315 14.9011 2.93503C17.8559 2.3469 20.9186 2.64875 23.702 3.8024C26.4853 4.95604 28.8643 6.90967 30.538 9.41624C32.2118 11.9228 33.1051 14.8697 33.1051 17.8844C33.1051 19.886 32.7111 21.868 31.9456 23.7173C31.1802 25.5666 30.0581 27.2469 28.6437 28.6622C27.2292 30.0776 25.55 31.2003 23.702 31.9663C21.8539 32.7323 19.8731 33.1266 17.8728 33.1266Z" fill="#E6E6E6"/>
<path d="M16.8853 24.0007C16.7614 24.0007 16.6388 23.9763 16.5244 23.9288C16.41 23.8814 16.3061 23.8119 16.2185 23.7242L11.1263 18.6286C11.0387 18.541 10.9693 18.437 10.9219 18.3225C10.8745 18.2081 10.8501 18.0854 10.8501 17.9615C10.8501 17.8376 10.8745 17.7149 10.9219 17.6004C10.9693 17.4859 11.0387 17.3819 11.1263 17.2943C11.2138 17.2067 11.3178 17.1372 11.4322 17.0898C11.5466 17.0423 11.6692 17.0179 11.793 17.0179C11.9168 17.0179 12.0395 17.0423 12.1539 17.0898C12.2683 17.1372 12.3722 17.2067 12.4598 17.2943L16.7748 21.6121L24.4233 11.1755C24.5712 10.9736 24.7932 10.8389 25.0404 10.8008C25.2876 10.7628 25.5398 10.8246 25.7415 10.9726C25.9432 11.1206 26.0779 11.3427 26.1159 11.5901C26.1539 11.8374 26.0922 12.0898 25.9443 12.2916L17.6458 23.6151C17.5653 23.7248 17.4621 23.8158 17.3433 23.8819C17.2244 23.948 17.0927 23.9876 16.9571 23.9981C16.9332 23.9999 16.909 24.0007 16.8853 24.0007Z" fill="#42C452"/>
</g>
<defs>
<clipPath id="clip0_17_323">
<rect width="525" height="354" fill="white"/>
</clipPath>
</defs>
</svg>
