<svg width="492" height="73" viewBox="0 0 492 73" fill="none" xmlns="http://www.w3.org/2000/svg">
<path d="M0 53.5494L16.4 58.8965C32.8 64.2435 65.6 74.9377 98.4 71.3619C131.2 67.9197 164 49.8733 196.8 39.2794C229.6 28.4849 262.4 25.143 295.2 23.2381C328 21.4669 360.8 21.4669 393.6 17.891C426.4 14.4488 459.2 7.0966 475.6 3.65441L492 0.0785453H475.6C459.2 0.0785453 426.4 0.0785453 393.6 0.0785453C360.8 0.0785453 328 0.0785453 295.2 0.0785453C262.4 0.0785453 229.6 0.0785453 196.8 0.0785453C164 0.0785453 131.2 0.0785453 98.4 0.0785453C65.6 0.0785453 32.8 0.0785453 16.4 0.0785453H0V53.5494Z" fill="white"/>
</svg>
