<svg width="87" height="87" viewBox="0 0 87 87" fill="none" xmlns="http://www.w3.org/2000/svg">
    <path d="M0.206619 87L6.32199 64.6591C2.54837 58.1196 0.565494 50.7065 0.569119 43.1049C0.579994 19.3394 19.9194 0 43.6812 0C55.2124 0.003625 66.0366 4.495 74.1784 12.644C82.3165 20.793 86.797 31.6245 86.7934 43.1448C86.7825 66.9139 67.4431 86.2533 43.6812 86.2533C36.4675 86.2496 29.3589 84.4408 23.0622 81.0043L0.206619 87V87ZM24.1207 73.1996C30.1962 76.8065 35.9962 78.967 43.6667 78.9706C63.4157 78.9706 79.5035 62.8974 79.5144 43.1375C79.5216 23.3377 63.51 7.28625 43.6957 7.279C23.9322 7.279 7.85537 23.3523 7.84812 43.1085C7.84449 51.1741 10.208 57.2134 14.1774 63.5317L10.556 76.7557L24.1207 73.1996V73.1996ZM65.3986 53.3926C65.1304 52.9431 64.4126 52.6749 63.3324 52.1347C62.2557 51.5946 56.9596 48.9882 55.97 48.6294C54.984 48.2705 54.2662 48.0893 53.5449 49.1695C52.8271 50.2461 50.7609 52.6749 50.1337 53.3926C49.5066 54.1104 48.8759 54.201 47.7992 53.6609C46.7226 53.1208 43.2499 51.9861 39.1355 48.314C35.9346 45.4575 33.7705 41.9304 33.1434 40.8501C32.5162 39.7735 33.0781 39.1899 33.6146 38.6534C34.1004 38.1713 34.6912 37.3955 35.2314 36.7648C35.7787 36.1413 35.9564 35.6918 36.3189 34.9704C36.6777 34.2526 36.5001 33.6219 36.2282 33.0818C35.9564 32.5453 33.8031 27.2419 32.9077 25.085C32.0305 22.9861 31.1424 23.2689 30.4826 23.2362L28.4164 23.2C27.6986 23.2 26.5314 23.4682 25.5454 24.5485C24.5594 25.6287 21.7754 28.2315 21.7754 33.5349C21.7754 38.8383 25.636 43.9604 26.1725 44.6781C26.7126 45.3959 33.7669 56.2781 44.573 60.9435C47.1431 62.0528 49.1514 62.7161 50.7137 63.2127C53.2947 64.032 55.6437 63.916 57.4997 63.6405C59.5696 63.3324 63.8725 61.0341 64.7715 58.5184C65.6705 55.999 65.6705 53.8421 65.3986 53.3926V53.3926Z" fill="white"/>
</svg>
